<mxfile host="65bd71144e">
    <diagram id="vMKuEf3kIptU_9BdDDbO" name="PÃ¡gina-1">
        <mxGraphModel dx="1489" dy="411" grid="1" gridSize="10" guides="1" tooltips="1" connect="1" arrows="1" fold="1" page="1" pageScale="1" pageWidth="827" pageHeight="1169" math="0" shadow="0">
            <root>
                <mxCell id="0"/>
                <mxCell id="1" parent="0"/>
                <mxCell id="3" style="edgeStyle=none;html=1;" edge="1" parent="1" source="2" target="4">
                    <mxGeometry relative="1" as="geometry">
                        <mxPoint x="320" y="120" as="targetPoint"/>
                    </mxGeometry>
                </mxCell>
                <mxCell id="2" value="INICIO" style="ellipse;whiteSpace=wrap;html=1;fillColor=#60a917;fontColor=#ffffff;strokeColor=#2D7600;gradientColor=default;" vertex="1" parent="1">
                    <mxGeometry x="270" y="30" width="100" height="50" as="geometry"/>
                </mxCell>
                <mxCell id="5" style="edgeStyle=none;html=1;" edge="1" parent="1" source="4">
                    <mxGeometry relative="1" as="geometry">
                        <mxPoint x="320" y="200" as="targetPoint"/>
                    </mxGeometry>
                </mxCell>
                <mxCell id="4" value="d = random(1,6)" style="rounded=0;whiteSpace=wrap;html=1;fillColor=#d80073;fontColor=#ffffff;strokeColor=#A50040;gradientColor=default;" vertex="1" parent="1">
                    <mxGeometry x="275" y="120" width="90" height="40" as="geometry"/>
                </mxCell>
                <mxCell id="7" style="edgeStyle=none;html=1;" edge="1" parent="1" source="6" target="8">
                    <mxGeometry relative="1" as="geometry">
                        <mxPoint x="440" y="280" as="targetPoint"/>
                        <Array as="points">
                            <mxPoint x="440" y="240"/>
                        </Array>
                    </mxGeometry>
                </mxCell>
                <mxCell id="9" style="edgeStyle=none;html=1;" edge="1" parent="1" source="6">
                    <mxGeometry relative="1" as="geometry">
                        <mxPoint x="200" y="280" as="targetPoint"/>
                        <Array as="points">
                            <mxPoint x="200" y="240"/>
                        </Array>
                    </mxGeometry>
                </mxCell>
                <mxCell id="6" value="d == 1" style="rhombus;whiteSpace=wrap;html=1;fillColor=#6a00ff;fontColor=#ffffff;strokeColor=#3700CC;gradientColor=default;" vertex="1" parent="1">
                    <mxGeometry x="280" y="200" width="80" height="80" as="geometry"/>
                </mxCell>
                <mxCell id="30" style="edgeStyle=none;html=1;" edge="1" parent="1" source="8">
                    <mxGeometry relative="1" as="geometry">
                        <mxPoint x="160" y="880" as="targetPoint"/>
                        <Array as="points">
                            <mxPoint x="440" y="800"/>
                            <mxPoint x="160" y="800"/>
                        </Array>
                    </mxGeometry>
                </mxCell>
                <mxCell id="8" value="rta =&amp;nbsp; &quot;UNO&quot;" style="rounded=0;whiteSpace=wrap;html=1;fillColor=#1ba1e2;fontColor=#ffffff;strokeColor=#006EAF;gradientColor=default;" vertex="1" parent="1">
                    <mxGeometry x="380" y="280" width="120" height="40" as="geometry"/>
                </mxCell>
                <mxCell id="20" style="edgeStyle=none;html=1;entryX=0.5;entryY=0;entryDx=0;entryDy=0;" edge="1" parent="1" source="10" target="11">
                    <mxGeometry relative="1" as="geometry">
                        <Array as="points">
                            <mxPoint x="300" y="320"/>
                        </Array>
                    </mxGeometry>
                </mxCell>
                <mxCell id="21" style="edgeStyle=none;html=1;entryX=0.5;entryY=0;entryDx=0;entryDy=0;" edge="1" parent="1" source="10" target="12">
                    <mxGeometry relative="1" as="geometry">
                        <Array as="points">
                            <mxPoint x="80" y="320"/>
                        </Array>
                    </mxGeometry>
                </mxCell>
                <mxCell id="10" value="d == 2" style="rhombus;whiteSpace=wrap;html=1;fillColor=#6a00ff;fontColor=#ffffff;strokeColor=#3700CC;gradientColor=default;" vertex="1" parent="1">
                    <mxGeometry x="160" y="280" width="80" height="80" as="geometry"/>
                </mxCell>
                <mxCell id="11" value="rta =&amp;nbsp; &quot;DOS&quot;" style="rounded=0;whiteSpace=wrap;html=1;fillColor=#1ba1e2;fontColor=#ffffff;strokeColor=#006EAF;gradientColor=default;" vertex="1" parent="1">
                    <mxGeometry x="240" y="360" width="120" height="40" as="geometry"/>
                </mxCell>
                <mxCell id="22" style="edgeStyle=none;html=1;entryX=0.5;entryY=0;entryDx=0;entryDy=0;" edge="1" parent="1" source="12" target="13">
                    <mxGeometry relative="1" as="geometry">
                        <Array as="points">
                            <mxPoint x="-40" y="400"/>
                        </Array>
                    </mxGeometry>
                </mxCell>
                <mxCell id="23" style="edgeStyle=none;html=1;entryX=0.5;entryY=0;entryDx=0;entryDy=0;" edge="1" parent="1" source="12" target="16">
                    <mxGeometry relative="1" as="geometry">
                        <Array as="points">
                            <mxPoint x="180" y="400"/>
                        </Array>
                    </mxGeometry>
                </mxCell>
                <mxCell id="12" value="d == 3" style="rhombus;whiteSpace=wrap;html=1;fillColor=#6a00ff;fontColor=#ffffff;strokeColor=#3700CC;gradientColor=default;" vertex="1" parent="1">
                    <mxGeometry x="40" y="360" width="80" height="80" as="geometry"/>
                </mxCell>
                <mxCell id="24" style="edgeStyle=none;html=1;entryX=0.5;entryY=0;entryDx=0;entryDy=0;" edge="1" parent="1" source="13" target="19">
                    <mxGeometry relative="1" as="geometry">
                        <Array as="points">
                            <mxPoint x="60" y="480"/>
                        </Array>
                    </mxGeometry>
                </mxCell>
                <mxCell id="25" style="edgeStyle=none;html=1;entryX=0.5;entryY=0;entryDx=0;entryDy=0;" edge="1" parent="1" source="13" target="15">
                    <mxGeometry relative="1" as="geometry">
                        <Array as="points">
                            <mxPoint x="-160" y="480"/>
                        </Array>
                    </mxGeometry>
                </mxCell>
                <mxCell id="13" value="d == 4" style="rhombus;whiteSpace=wrap;html=1;fillColor=#6a00ff;fontColor=#ffffff;strokeColor=#3700CC;gradientColor=default;" vertex="1" parent="1">
                    <mxGeometry x="-80" y="440" width="80" height="80" as="geometry"/>
                </mxCell>
                <mxCell id="28" style="edgeStyle=none;html=1;entryX=0.5;entryY=0;entryDx=0;entryDy=0;" edge="1" parent="1" source="14" target="17">
                    <mxGeometry relative="1" as="geometry">
                        <Array as="points">
                            <mxPoint x="-180" y="640"/>
                        </Array>
                    </mxGeometry>
                </mxCell>
                <mxCell id="29" style="edgeStyle=none;html=1;" edge="1" parent="1" source="14">
                    <mxGeometry relative="1" as="geometry">
                        <mxPoint x="160" y="880" as="targetPoint"/>
                        <Array as="points">
                            <mxPoint x="-280" y="800"/>
                            <mxPoint x="160" y="800"/>
                        </Array>
                    </mxGeometry>
                </mxCell>
                <mxCell id="14" value="d == 6" style="rhombus;whiteSpace=wrap;html=1;fillColor=#6a00ff;fontColor=#ffffff;strokeColor=#3700CC;gradientColor=default;" vertex="1" parent="1">
                    <mxGeometry x="-320" y="600" width="80" height="80" as="geometry"/>
                </mxCell>
                <mxCell id="26" style="edgeStyle=none;html=1;entryX=0.5;entryY=0;entryDx=0;entryDy=0;" edge="1" parent="1" source="15" target="18">
                    <mxGeometry relative="1" as="geometry">
                        <Array as="points">
                            <mxPoint x="-60" y="560"/>
                        </Array>
                    </mxGeometry>
                </mxCell>
                <mxCell id="27" style="edgeStyle=none;html=1;entryX=0.5;entryY=0;entryDx=0;entryDy=0;" edge="1" parent="1" source="15" target="14">
                    <mxGeometry relative="1" as="geometry">
                        <Array as="points">
                            <mxPoint x="-280" y="560"/>
                        </Array>
                    </mxGeometry>
                </mxCell>
                <mxCell id="15" value="d == 5" style="rhombus;whiteSpace=wrap;html=1;fillColor=#6a00ff;fontColor=#ffffff;strokeColor=#3700CC;gradientColor=default;" vertex="1" parent="1">
                    <mxGeometry x="-200" y="520" width="80" height="80" as="geometry"/>
                </mxCell>
                <mxCell id="16" value="rta =&amp;nbsp; &quot;TRES&quot;" style="rounded=0;whiteSpace=wrap;html=1;fillColor=#1ba1e2;fontColor=#ffffff;strokeColor=#006EAF;gradientColor=default;" vertex="1" parent="1">
                    <mxGeometry x="120" y="440" width="120" height="40" as="geometry"/>
                </mxCell>
                <mxCell id="17" value="rta =&amp;nbsp; &quot;SEIS&quot;" style="rounded=0;whiteSpace=wrap;html=1;fillColor=#1ba1e2;fontColor=#ffffff;strokeColor=#006EAF;gradientColor=default;" vertex="1" parent="1">
                    <mxGeometry x="-240" y="680" width="120" height="40" as="geometry"/>
                </mxCell>
                <mxCell id="18" value="rta =&amp;nbsp; &quot;CINCO&quot;" style="rounded=0;whiteSpace=wrap;html=1;fillColor=#1ba1e2;fontColor=#ffffff;strokeColor=#006EAF;gradientColor=default;" vertex="1" parent="1">
                    <mxGeometry x="-120" y="600" width="120" height="40" as="geometry"/>
                </mxCell>
                <mxCell id="19" value="rta =&amp;nbsp; &quot;CUATRO&quot;" style="rounded=0;whiteSpace=wrap;html=1;fillColor=#1ba1e2;fontColor=#ffffff;strokeColor=#006EAF;gradientColor=default;" vertex="1" parent="1">
                    <mxGeometry y="520" width="120" height="40" as="geometry"/>
                </mxCell>
                <mxCell id="38" style="edgeStyle=none;html=1;" edge="1" parent="1" source="31">
                    <mxGeometry relative="1" as="geometry">
                        <mxPoint x="160" y="990" as="targetPoint"/>
                    </mxGeometry>
                </mxCell>
                <mxCell id="31" value="el dado cayo en +rta" style="shape=document;whiteSpace=wrap;html=1;boundedLbl=1;fillColor=#e3c800;fontColor=#000000;strokeColor=#B09500;gradientColor=default;" vertex="1" parent="1">
                    <mxGeometry x="110" y="880" width="100" height="60" as="geometry"/>
                </mxCell>
                <mxCell id="32" value="" style="endArrow=none;html=1;entryX=0.5;entryY=1;entryDx=0;entryDy=0;" edge="1" parent="1" target="11">
                    <mxGeometry width="50" height="50" relative="1" as="geometry">
                        <mxPoint x="300" y="800" as="sourcePoint"/>
                        <mxPoint x="160" y="560" as="targetPoint"/>
                    </mxGeometry>
                </mxCell>
                <mxCell id="34" value="" style="endArrow=none;html=1;entryX=0.5;entryY=1;entryDx=0;entryDy=0;" edge="1" parent="1">
                    <mxGeometry width="50" height="50" relative="1" as="geometry">
                        <mxPoint x="-180" y="800" as="sourcePoint"/>
                        <mxPoint x="-180.5" y="720" as="targetPoint"/>
                    </mxGeometry>
                </mxCell>
                <mxCell id="35" value="" style="endArrow=none;html=1;entryX=0.5;entryY=1;entryDx=0;entryDy=0;" edge="1" parent="1">
                    <mxGeometry width="50" height="50" relative="1" as="geometry">
                        <mxPoint x="-60" y="800" as="sourcePoint"/>
                        <mxPoint x="-60.5" y="640" as="targetPoint"/>
                    </mxGeometry>
                </mxCell>
                <mxCell id="36" value="" style="endArrow=none;html=1;entryX=0.5;entryY=1;entryDx=0;entryDy=0;" edge="1" parent="1">
                    <mxGeometry width="50" height="50" relative="1" as="geometry">
                        <mxPoint x="60" y="800" as="sourcePoint"/>
                        <mxPoint x="59.5" y="560" as="targetPoint"/>
                    </mxGeometry>
                </mxCell>
                <mxCell id="41" value="" style="endArrow=none;html=1;entryX=0.5;entryY=1;entryDx=0;entryDy=0;" edge="1" parent="1" target="16">
                    <mxGeometry width="50" height="50" relative="1" as="geometry">
                        <mxPoint x="180" y="800" as="sourcePoint"/>
                        <mxPoint x="200" y="725" as="targetPoint"/>
                    </mxGeometry>
                </mxCell>
                <mxCell id="42" value="FIN" style="ellipse;whiteSpace=wrap;html=1;fillColor=#60a917;fontColor=#ffffff;strokeColor=#2D7600;gradientColor=default;" vertex="1" parent="1">
                    <mxGeometry x="110" y="990" width="100" height="50" as="geometry"/>
                </mxCell>
            </root>
        </mxGraphModel>
    </diagram>
</mxfile>